<?xml version="1.0" standalone="no"?><!DOCTYPE svg PUBLIC "-//W3C//DTD SVG 1.1//EN" "http://www.w3.org/Graphics/SVG/1.1/DTD/svg11.dtd"><svg t="1717732230641" class="icon" viewBox="0 0 1024 1024" version="1.1" xmlns="http://www.w3.org/2000/svg" p-id="3795" xmlns:xlink="http://www.w3.org/1999/xlink" width="200" height="200"><path d="M512 597.841171c172.43161 0 312.195122-32.892878 312.195122-73.428293 0-40.585366-139.763512-73.478244-312.195122-73.478244S199.804878 483.827512 199.804878 524.387902c0 40.56039 139.763512 73.453268 312.195122 73.453269z" fill="#C63900" p-id="3796"></path><path d="M684.25678 716.949854H351.232c-51.724488 0-99.352976 30.045659-119.907902 71.779902-7.667512-8.616585-18.881561-12.862439-31.51922-12.862439-22.902634 0-41.634341 19.456-41.634341 41.58439v60.266147h645.219902v-40.210732c0-66.56-50.200976-120.557268-119.133659-120.557268z" fill="#FA743E" p-id="3797"></path><path d="M428.756293 648.766439v67.309268c0 0.074927 0.22478 0.149854 0.299707 0.249756 2.747317 4.920195 77.774049 140.238049 83.018927 140.238049 5.269854 0 80.221659-135.317854 82.944-140.263024 0.074927-0.074927 0.199805-0.149854 0.199805-0.224781v-67.309268h-166.462439z" fill="#FFDC5D" p-id="3798"></path><path d="M428.756293 702.838634c23.202341 26.22439 51.949268 33.317463 83.243707 33.317464 31.269463 0 60.01639-7.143024 83.243707-33.317464v-66.584975h-166.487414v66.584975z" fill="#F9CA55" p-id="3799"></path><path d="M511.625366 410.599024c-54.321951 0-117.685073 66.56-189.714732 80.871025 2.997073 31.194537 12.437854 54.49678 16.683707 85.891122 7.018146 51.549659 36.014829 68.058537 59.192196 74.926829 33.342439 44.056976 68.782829 42.20878 128.274731 42.20878 114.138537 0 169.434537-75.126634 176.028098-202.876878-72.354341-14.410927-135.96722-81.020878-190.464-81.020878z" fill="#D1D3D4" p-id="3800"></path><path d="M643.421659 490.296195c-11.239024-15.559805-25.624976-28.097561-57.194147-32.543219 11.863415 5.419707 23.202341 24.151415 24.675903 34.491317 1.498537 10.389854 2.947122 18.731707-6.418732 8.391805-37.513366-41.459512-78.398439-25.125463-118.908878-50.475708-28.297366-17.732683-36.913951-37.288585-36.913951-37.288585s-3.446634 26.149463-46.354732 52.773463c-12.437854 7.717463-27.24839 24.900683-35.490342 50.300878-5.91922 18.232195-4.096 34.516293-4.096 62.339122 0 81.170732 66.909659 149.404098 149.429074 149.404098s149.404098-68.83278 149.404097-149.404098c0-50.500683-5.294829-70.231415-18.132292-87.989073z" fill="#FFDC5D" p-id="3801"></path><path d="M528.60878 619.769756h-33.21756a8.291902 8.291902 0 1 1 0-16.60878h33.21756a8.291902 8.291902 0 1 1 0 16.60878z" fill="#C1694F" p-id="3802"></path><path d="M445.564878 561.676488a16.60878 16.60878 0 0 1-16.583805-16.608781v-16.60878a16.60878 16.60878 0 0 1 33.217561 0v16.633756a16.60878 16.60878 0 0 1-16.60878 16.583805z m132.870244 0a16.60878 16.60878 0 0 1-16.633756-16.608781v-16.60878a16.60878 16.60878 0 0 1 33.217561 0v16.633756a16.633756 16.633756 0 0 1-16.608781 16.583805z" fill="#662113" p-id="3803"></path><path d="M511.925073 679.261659c-49.077073 0-64.187317-12.562732-66.684878-15.110244a11.66361 11.66361 0 0 1 16.109268-16.933464c0.899122 0.649366 12.837463 8.666537 50.57561 8.666537 39.261659 0 50.57561-8.641561 50.700488-8.741464a11.413854 11.413854 0 0 1 16.284098 0.274732 11.963317 11.963317 0 0 1-0.249757 16.733659c-2.547512 2.547512-17.63278 15.110244-66.734829 15.110244z" fill="#C1694F" p-id="3804"></path><path d="M673.592195 443.916488C648.092098 387.971122 528.483902 128.449561 512 128.449561c-16.483902 0-136.042146 259.546537-161.592195 315.441951-100.352 17.582829-150.602927 50.750439-150.602927 79.996878 124.878049-41.609366 228.951415-50.850341 312.195122-50.850341s187.317073 9.240976 312.195122 50.850341c0-29.221463-50.250927-62.414049-150.602927-79.971902z" fill="#FA743E" p-id="3805"></path><path d="M241.43922 877.717854H199.804878V375.333463l-20.804683-80.396487H262.243902l-20.804682 80.396487v502.384391z" fill="#D99E82" p-id="3806"></path><path d="M220.609561 315.766634a62.439024 62.439024 0 1 0 0-124.878049 62.439024 62.439024 0 0 0 0 124.878049z" fill="#55ACEE" p-id="3807"></path><path d="M210.219707 274.132293a31.219512 31.219512 0 1 0 0-62.439025 31.219512 31.219512 0 0 0 0 62.439025z" fill="#B0F0FF" p-id="3808"></path><path d="M283.048585 763.254634c0 40.210732-27.947707 72.828878-62.439024 72.828878-34.466341 0-62.439024-32.618146-62.439024-72.828878 0-40.235707 27.972683-52.049171 62.439024-52.049171 34.491317 0 62.439024 11.813463 62.439024 52.049171z" fill="#FFDC5D" p-id="3809"></path></svg>